<?xml version="1.0" encoding="UTF-8" standalone="no"?>
<!-- Created with Inkscape (http://www.inkscape.org/) -->

<svg
   xmlns:dc="http://purl.org/dc/elements/1.1/"
   xmlns:cc="http://creativecommons.org/ns#"
   xmlns:rdf="http://www.w3.org/1999/02/22-rdf-syntax-ns#"
   xmlns:svg="http://www.w3.org/2000/svg"
   xmlns="http://www.w3.org/2000/svg"
   xmlns:sodipodi="http://sodipodi.sourceforge.net/DTD/sodipodi-0.dtd"
   xmlns:inkscape="http://www.inkscape.org/namespaces/inkscape"
   width="133"
   height="133"
   id="svg2"
   version="1.1"
   inkscape:version="0.48.5 r10040"
   sodipodi:docname="logo.svg"
   inkscape:export-filename="C:\Documents and Settings\ftkaczyszyn\Escritorio\iguanago\logo.png"
   inkscape:export-xdpi="300"
   inkscape:export-ydpi="300">
  <defs
     id="defs4" />
  <sodipodi:namedview
     id="base"
     pagecolor="#ffffff"
     bordercolor="#666666"
     borderopacity="1.0"
     inkscape:pageopacity="0.0"
     inkscape:pageshadow="2"
     inkscape:zoom="1.1852325"
     inkscape:cx="146.526"
     inkscape:cy="64.094077"
     inkscape:document-units="px"
     inkscape:current-layer="layer1"
     showgrid="false"
     inkscape:window-width="1152"
     inkscape:window-height="808"
     inkscape:window-x="-4"
     inkscape:window-y="-4"
     inkscape:window-maximized="1"
     fit-margin-top="0"
     fit-margin-left="0"
     fit-margin-right="0"
     fit-margin-bottom="0" />
  <metadata
     id="metadata7">
    <rdf:RDF>
      <cc:Work
         rdf:about="">
        <dc:format>image/svg+xml</dc:format>
        <dc:type
           rdf:resource="http://purl.org/dc/dcmitype/StillImage" />
        <dc:title></dc:title>
      </cc:Work>
    </rdf:RDF>
  </metadata>
  <g
     inkscape:label="Layer 1"
     inkscape:groupmode="layer"
     id="layer1"
     transform="translate(-132.92102,-182.75832)">
    <rect
       style="fill:#00c9cc;fill-opacity:1;stroke:none"
       id="rect3866"
       width="133"
       height="133"
       x="132.92102"
       y="182.75832"
       rx="20"
       ry="20" />
    <path
       style="fill:#000000;fill-opacity:1"
       d="m 216.08207,286.11789 c -8.13408,-0.72961 -15.0116,-3.04172 -21.27056,-7.15086 -10.94389,-7.18487 -17.85182,-18.23896 -19.75759,-31.61614 -0.30068,-2.11069 -0.30068,-8.66897 0,-10.77965 1.00661,-7.0657 3.27902,-13.23813 6.90958,-18.76813 7.18488,-10.9439 18.23897,-17.85183 31.61615,-19.75758 2.47685,-0.35287 8.69932,-0.29949 11.42501,0.098 16.78962,2.44851 30.70839,14.03574 35.919,29.9022 1.61172,4.90774 2.19446,8.60292 2.19446,13.91532 0,5.3454 -0.58845,9.0538 -2.21451,13.9558 -1.58695,4.78417 -4.4779,10.11098 -7.46955,13.76329 -7.33251,8.95181 -17.52208,14.63687 -28.97852,16.16798 -1.67462,0.22382 -6.98015,0.39473 -8.37347,0.26976 z m 8.66222,-3.85314 c 16.21856,-2.26838 29.74669,-14.42273 33.6889,-30.26778 0.87522,-3.51782 1.1894,-6.09511 1.19998,-9.84342 0.009,-3.37377 -0.33193,-7.12226 -0.64877,-7.12226 -0.0928,0 -0.16873,0.17 -0.16873,0.37776 0,0.20777 -0.18635,0.8791 -0.41413,1.49183 -0.46657,1.2552 -1.40502,2.26917 -2.27751,2.46081 -0.73789,0.16205 -0.75965,0.64599 -0.0995,2.21439 0.58836,1.39788 0.6211,2.64412 0.095,3.61693 -0.21242,0.39279 -0.98942,1.53709 -1.72664,2.54287 -0.73723,1.00578 -1.62454,2.38813 -1.97181,3.0719 -0.60139,1.18412 -0.62921,1.3334 -0.58518,3.14009 0.0254,1.04329 -0.0422,2.2915 -0.15029,2.77381 -0.23754,1.05999 -3.84764,7.4822 -5.33659,9.49359 -1.46389,1.97753 -4.15816,4.59906 -5.42399,5.27753 -0.70901,0.38004 -1.32517,0.56144 -1.90694,0.56144 -1.30414,0 -1.71397,-0.58756 -2.88141,-4.13097 -2.05406,-6.2346 -2.09042,-6.48193 -1.25792,-8.55634 0.82167,-2.04744 0.7554,-3.01267 -0.37068,-5.39849 -0.51295,-1.0868 -1.01404,-2.49135 -1.13313,-3.17616 -0.14053,-0.8081 -0.3933,-1.45799 -0.73956,-1.90144 -0.28933,-0.37055 -0.80467,-1.1285 -1.14518,-1.68432 -0.74592,-1.21756 -0.90826,-1.23912 -3.12352,-0.41471 -3.77197,1.40374 -4.81084,1.48289 -6.72337,0.51225 -1.77846,-0.90261 -4.49238,-3.65472 -5.36373,-5.43925 -0.82516,-1.6899 -0.90004,-2.62984 -0.49845,-6.25604 0.42554,-3.84249 0.96247,-4.99064 3.46577,-7.41101 0.9855,-0.95284 1.95006,-1.99231 2.14348,-2.30992 0.19343,-0.31762 0.59447,-0.89362 0.89121,-1.28001 l 0.53951,-0.70252 -0.71509,-0.37111 c -0.4531,-0.23514 -0.88251,-0.68298 -1.17209,-1.22241 -0.39879,-0.74285 -0.44692,-1.0475 -0.37774,-2.39126 0.0895,-1.73801 0.48736,-2.70233 1.52446,-3.69461 1.03985,-0.99493 2.15313,-1.39616 3.91486,-1.41093 1.76493,-0.0148 2.24697,-0.18871 3.36984,-1.21582 l 0.80795,-0.73904 -0.30832,-0.80734 c -0.87252,-2.28462 -0.0692,-3.53765 2.92967,-4.56938 0.58183,-0.20018 1.50129,-0.70605 2.04323,-1.12416 0.54196,-0.41811 1.18786,-0.83511 1.43536,-0.92667 0.40425,-0.14954 0.30587,-0.23114 -0.96775,-0.80279 -2.81365,-1.26289 -6.87274,-2.42068 -10.49565,-2.99371 -0.72372,-0.11448 -0.81353,-0.0837 -0.93412,0.32043 -0.16228,0.54374 -2.58175,3.05818 -3.68123,3.82573 -1.27255,0.88839 -2.60519,1.31273 -5.0879,1.62009 -2.72584,0.33746 -3.40432,0.6053 -6.19006,2.44361 -2.39229,1.57866 -3.42687,1.86232 -4.09581,1.12301 -0.51107,-0.56483 -0.46658,-1.61771 0.14636,-3.46427 0.26357,-0.79403 0.54274,-1.59528 0.62038,-1.78056 0.1189,-0.28375 0.0343,-0.33686 -0.53623,-0.33686 -1.48888,0 -5.71609,1.00551 -5.71609,1.35966 0,0.10669 0.36936,0.3523 0.82081,0.54581 0.45146,0.19352 0.93756,0.4925 1.08022,0.66439 0.36652,0.44165 0.12143,1.21166 -0.50851,1.59754 -2.37414,1.45438 -2.44343,1.6255 -1.61611,3.99069 1.0035,2.86892 0.76722,4.0746 -0.98326,5.0173 -0.80367,0.4328 -1.35503,0.32331 -2.34882,-0.46646 -0.40267,-0.32 -0.80337,-0.58183 -0.89044,-0.58183 -0.0871,0 -0.25294,0.36814 -0.36862,0.8181 -0.62256,2.42164 -0.54912,2.31844 -1.97536,2.77627 -1.33175,0.42752 -2.51763,1.17606 -4.3444,2.74229 -0.83125,0.71268 -1.20617,1.25112 -1.95441,2.80679 -0.50921,1.05872 -1.15535,2.14149 -1.43586,2.40618 -0.2805,0.26468 -1.43465,1.1309 -2.56477,1.92493 -1.13013,0.79404 -2.16377,1.66027 -2.29697,1.92493 -0.65785,1.30717 -0.0709,4.34193 1.26647,6.54774 0.84535,1.39434 0.82632,1.38829 3.32328,1.05505 0.93524,-0.12482 1.22843,-0.0786 2.13661,0.33724 0.57894,0.26505 1.65034,1.04344 2.3809,1.72976 0.73055,0.68632 2.11511,1.73287 3.07681,2.32566 1.95654,1.20603 3.24338,2.46882 3.44326,3.37887 0.21446,0.97639 1.10983,1.49069 5.91006,3.39469 3.79155,1.50392 4.41558,2.90912 2.74051,6.17108 l -0.8834,1.7203 0.12037,2.02118 c 0.15265,2.56296 -0.072,3.09963 -1.65082,3.94406 -2.19433,1.17362 -2.53344,1.67196 -2.68058,3.9391 -0.0756,1.16608 -0.26402,2.03459 -0.64665,2.98194 -0.60803,1.50538 -0.59522,2.20508 0.073,3.99122 l 0.39309,1.05063 2.26108,1.08895 c 7.45892,3.59229 15.32837,4.82076 23.53162,3.67343 z M 187.3072,266.93074 c -0.13648,-0.45345 -0.39101,-1.94768 -0.56565,-3.32051 -0.27198,-2.13814 -0.3924,-2.59523 -0.83986,-3.18778 -0.28731,-0.38046 -1.10631,-1.46324 -1.82,-2.40618 -2.63159,-3.47686 -3.32088,-5.51811 -3.53651,-10.4729 l -0.11309,-2.59865 -0.99127,-1.68111 c -0.5452,-0.92461 -1.06021,-1.68256 -1.14445,-1.68432 -0.20105,-0.005 0.005,3.38626 0.36734,6.06033 0.92006,6.78005 3.76501,13.61812 7.90852,19.00875 0.46793,0.60877 0.88055,1.10685 0.91694,1.10685 0.0364,0 -0.0456,-0.37101 -0.18197,-0.82448 z m 59.21486,-39.02573 c 0.4965,-0.1379 0.76712,-0.35709 0.93181,-0.75471 0.5761,-1.39078 -0.57179,-2.05042 -4.02403,-2.31247 -2.36611,-0.1796 -3.16605,-0.43447 -3.4171,-1.08869 -0.0907,-0.23651 -0.17921,-0.21367 -0.49815,0.12868 -0.48981,0.52574 -1.56609,0.98322 -1.95871,0.83255 -0.43666,-0.16757 -0.37068,0.22462 0.22056,1.31092 0.71081,1.30601 1.17054,1.50107 3.56086,1.5109 1.09045,0.005 2.45905,0.12705 3.04135,0.27237 1.33725,0.33373 1.30845,0.33238 2.14341,0.10045 z m -9.84316,-4.61369 c 0,-0.52786 -0.13104,-0.64112 -1.58808,-1.37266 -0.87344,-0.43852 -1.95016,-1.04586 -2.39273,-1.34961 -1.18196,-0.81124 -1.86761,-0.74522 -2.84405,0.27385 -1.11262,1.1612 -1.7325,2.06179 -1.41736,2.05921 0.13955,-0.002 0.67895,-0.1311 1.19867,-0.28875 0.56297,-0.17079 1.71377,-0.28665 2.84695,-0.28665 2.02273,0 2.92012,0.27537 3.69707,1.13448 0.47368,0.52375 0.49953,0.51497 0.49953,-0.16987 z"
       id="path3049"
       inkscape:connector-curvature="0" />
    <path
       style="fill:#ffffff;fill-opacity:1;stroke:none"
       d="m 135.26402,232.29326 c 0.50388,-0.13501 2.25427,0.32772 3.88974,1.0283 3.96292,1.69758 4.31208,1.4708 2.71346,-1.76234 -1.35274,-2.73588 -0.2366,-4.34522 1.54332,-2.22527 0.70958,0.84515 0.93496,0.78475 1.1269,-0.30195 0.46296,-2.62102 2.02411,-1.80281 2.61417,1.37009 0.55665,2.99335 0.82224,3.16681 4.02222,2.62744 1.88441,-0.31763 6.65157,-2.67364 10.59366,-5.23556 5.6136,-3.64823 8.00318,-5.96706 11.02243,-10.69604 2.12024,-3.3209 5.02033,-6.6142 6.44465,-7.31844 3.4411,-1.70144 15.64094,-3.7963 17.48759,-3.00283 5.72538,2.46008 -1.97287,15.87622 -13.40877,23.36815 -1.7321,1.13474 -1.32541,3.69686 1.12596,7.09368 2.10131,2.91176 5.97153,1.69132 5.55389,-1.75137 -0.33882,-2.793 1.33224,-3.45262 2.04145,-0.80582 0.67934,2.53534 2.75847,1.90928 3.68014,-1.10815 0.52043,-1.70382 1.10686,-2.17015 2.04667,-1.62755 0.93981,0.54259 1.07734,1.2823 0.47998,2.58164 -0.51774,1.12614 -0.44525,1.71609 0.18995,1.54589 0.56495,-0.15138 1.17936,-0.78188 1.36534,-1.40112 0.41876,-1.39424 3.03773,-2.18602 3.35194,-1.01336 0.12651,0.47213 -1.21485,1.55147 -2.98079,2.39852 -3.15604,1.51383 -4.1049,3.7564 -1.26772,2.99618 0.79689,-0.21352 1.63605,0.31027 1.86481,1.16401 0.29674,1.10746 -0.12348,1.4766 -1.46654,1.28828 -2.1498,-0.30143 -2.87575,-0.15596 -9.96265,1.99646 l -5.16011,1.56722 1.9626,5.14152 c 2.50307,6.55744 3.59179,7.60561 4.71005,4.53461 0.4764,-1.30826 1.38873,-2.50319 2.02741,-2.65538 1.82011,-0.43375 6.43703,2.0261 6.87571,3.66327 0.74747,2.7896 2.55235,2.1246 3.28195,-1.20921 0.40145,-1.8344 1.15341,-3.44874 1.67103,-3.58744 1.46534,-0.39263 1.78305,2.22715 0.49126,4.05094 -1.95862,2.76526 0.0975,5.32936 5.05561,6.30459 4.83496,0.951 6.17701,2.03221 3.43458,2.76704 -0.90064,0.24133 -3.18946,-0.41346 -5.0863,-1.45509 -4.80149,-2.6367 -6.45896,-0.66124 -5.40707,6.44441 0.94729,6.399 2.11746,7.25575 11.48003,8.40522 5.03369,0.618 7.90002,0.27107 16.25366,-1.96729 9.07004,-2.43031 10.62983,-3.1443 14.75471,-6.75392 5.35186,-4.68332 9.04326,-10.3035 11.71488,-17.83592 2.96177,-8.35051 2.93426,-13.65891 -0.12017,-23.1805 -3.00277,-9.36059 -7.54385,-15.72993 -14.54652,-20.40305 -5.50834,-3.67589 -3.38689,-3.9888 2.86252,-0.42221 15.07315,8.60235 22.81724,29.04302 17.96821,47.42744 -1.79691,6.81274 -9.2341,19.47216 -13.92165,23.69714 -14.7273,13.27399 -36.19291,15.93667 -56.4035,6.99652 -8.2771,-3.66138 -12.4463,-3.45722 -11.37075,0.55679 0.36164,1.34966 1.92169,3.46033 3.46678,4.69037 1.63752,1.30363 2.73202,2.97193 2.6241,3.99978 -0.27622,2.63093 -2.57023,2.02013 -4.57061,-1.21695 -3.1583,-5.11089 -6.69738,0.0672 -4.84864,7.09413 0.65604,2.49359 0.42773,3.25003 -1.10493,3.66071 -2.24077,0.60041 -2.93062,-0.93539 -1.62759,-3.62348 1.41822,-2.9257 1.02679,-7.60357 -0.59977,-7.16774 -0.74197,0.19881 -1.71543,1.15846 -2.16327,2.13256 -1.05994,2.30552 -4.32862,3.16387 -4.8361,1.26995 -0.23648,-0.88256 0.77084,-2.04934 2.51289,-2.91068 2.67887,-1.32456 2.72547,-1.45454 0.5925,-1.65244 -3.54923,-0.32929 -3.24675,-2.10242 0.53135,-3.11476 4.10008,-1.09861 3.95319,-2.7414 -0.52466,-5.86766 l -3.16867,-2.21223 1.31245,-3.06384 c 0.72184,-1.68512 2.15023,-3.28833 3.17419,-3.5627 2.41975,-0.64837 2.25066,-1.04754 -2.85433,-6.73856 -6.01139,-6.70144 -8.25632,-12.73092 -8.55621,-22.98034 l -0.24341,-8.31972 -7.49495,1.317 c -4.12222,0.72434 -8.6249,1.44661 -10.00595,1.60503 -1.38106,0.15842 -2.84647,0.34008 -3.25648,0.40369 -1.83284,0.28432 -1.0374,-1.88189 0.89779,-2.44495 1.82534,-0.53113 1.57841,-0.74627 -1.59017,-1.38565 -3.58365,-0.72313 -6.19902,-2.68917 -4.26625,-3.20706 z m 65.89869,40.31797 c 0.96847,0.87592 1.02872,0.078 0.22411,-2.96816 -0.66977,-2.53439 -1.41613,-3.83098 -1.90644,-3.31036 -1.02236,1.08558 -0.051,4.71084 1.68233,6.27852 z"
       id="path3036"
       inkscape:connector-curvature="0" />
  </g>
</svg>
