<?xml version="1.0" encoding="UTF-8" standalone="no"?>
<!-- Created with Inkscape (http://www.inkscape.org/) -->

<svg
   xmlns:dc="http://purl.org/dc/elements/1.1/"
   xmlns:cc="http://creativecommons.org/ns#"
   xmlns:rdf="http://www.w3.org/1999/02/22-rdf-syntax-ns#"
   xmlns:svg="http://www.w3.org/2000/svg"
   xmlns="http://www.w3.org/2000/svg"
   xmlns:sodipodi="http://sodipodi.sourceforge.net/DTD/sodipodi-0.dtd"
   xmlns:inkscape="http://www.inkscape.org/namespaces/inkscape"
   width="133"
   height="133"
   id="svg2"
   version="1.1"
   inkscape:version="0.48.5 r10040"
   sodipodi:docname="logo.svg"
   inkscape:export-filename="C:\Documents and Settings\ftkaczyszyn\Escritorio\iguanago\logo.png"
   inkscape:export-xdpi="300"
   inkscape:export-ydpi="300">
  <defs
     id="defs4" />
  <sodipodi:namedview
     id="base"
     pagecolor="#ffffff"
     bordercolor="#666666"
     borderopacity="1.0"
     inkscape:pageopacity="0.0"
     inkscape:pageshadow="2"
     inkscape:zoom="2.8380763"
     inkscape:cx="112.65591"
     inkscape:cy="61.452063"
     inkscape:document-units="px"
     inkscape:current-layer="layer1"
     showgrid="false"
     inkscape:window-width="1152"
     inkscape:window-height="808"
     inkscape:window-x="-4"
     inkscape:window-y="-4"
     inkscape:window-maximized="1"
     fit-margin-top="0"
     fit-margin-left="0"
     fit-margin-right="0"
     fit-margin-bottom="0"
     showguides="true"
     inkscape:guide-bbox="true" />
  <metadata
     id="metadata7">
    <rdf:RDF>
      <cc:Work
         rdf:about="">
        <dc:format>image/svg+xml</dc:format>
        <dc:type
           rdf:resource="http://purl.org/dc/dcmitype/StillImage" />
        <dc:title></dc:title>
      </cc:Work>
    </rdf:RDF>
  </metadata>
  <g
     inkscape:label="Layer 1"
     inkscape:groupmode="layer"
     id="layer1"
     transform="translate(-132.92102,-182.75832)">
    <path
       style="fill:#00c9cc;fill-opacity:1;stroke:none"
       d="M 20 0 C 8.92 0 -3.0947467e-017 8.92 0 20 L 0 113 C 0 124.08 8.92 133 20 133 L 113 133 C 124.08 133 133 124.08 133 113 L 133 20 C 133 8.92 124.08 -3.0947467e-017 113 0 L 20 0 z M 106.84375 21.65625 C 107.46675 21.56436 109.53155 22.372955 112.65625 24.15625 C 127.7294 32.7586 135.47403 53.20933 130.625 71.59375 C 128.82809 78.40649 121.4063 91.05627 116.71875 95.28125 C 101.99145 108.55524 80.52309 111.2214 60.3125 102.28125 C 52.0354 98.61987 47.86195 98.82974 48.9375 102.84375 C 49.29914 104.19341 50.86116 106.30121 52.40625 107.53125 C 54.04377 108.83488 55.13917 110.5034 55.03125 111.53125 C 54.75503 114.16218 52.46913 113.54958 50.46875 110.3125 C 47.31045 105.20161 43.77626 110.37932 45.625 117.40625 C 46.28104 119.89984 46.03266 120.65182 44.5 121.0625 C 42.25923 121.66291 41.57197 120.12559 42.875 117.4375 C 44.29322 114.5118 43.90781 109.84542 42.28125 110.28125 C 41.53928 110.48006 40.57284 111.43215 40.125 112.40625 C 39.06506 114.71177 35.78873 115.55017 35.28125 113.65625 C 35.04477 112.77369 36.0392 111.61134 37.78125 110.75 C 40.46012 109.42544 40.50797 109.29165 38.375 109.09375 C 34.82577 108.76446 35.12815 107.01234 38.90625 106 C 43.00633 104.90139 42.8841 103.25126 38.40625 100.125 L 35.21875 97.90625 L 36.53125 94.84375 C 37.25309 93.15863 38.69479 91.55562 39.71875 91.28125 C 42.1385 90.63288 41.94874 90.25352 36.84375 84.5625 C 30.83236 77.86106 28.61239 71.81192 28.3125 61.5625 L 28.0625 53.25 L 20.5625 54.5625 C 16.44028 55.28684 11.94355 55.99783 10.5625 56.15625 C 9.18144 56.31467 7.72251 56.49889 7.3125 56.5625 C 5.47966 56.84682 6.25231 54.68806 8.1875 54.125 C 10.01284 53.59387 9.76233 53.38938 6.59375 52.75 C 3.0101 52.02687 0.41098 50.04914 2.34375 49.53125 C 2.84763 49.39624 4.58328 49.86192 6.21875 50.5625 C 10.18167 52.26008 10.53612 52.04564 8.9375 48.8125 C 7.58476 46.07662 8.72008 44.44255 10.5 46.5625 C 11.20958 47.40765 11.43306 47.36795 11.625 46.28125 C 12.08796 43.66023 13.62869 44.48335 14.21875 47.65625 C 14.7754 50.6496 15.05002 50.82062 18.25 50.28125 C 20.13441 49.96362 24.90166 47.59317 28.84375 45.03125 C 34.45735 41.38302 36.85575 39.07273 39.875 34.34375 C 41.99524 31.02285 44.88818 27.73549 46.3125 27.03125 C 49.7536 25.32981 61.96585 23.23778 63.8125 24.03125 C 69.53788 26.49133 61.84215 39.88307 50.40625 47.375 C 48.67415 48.50974 49.07988 51.07193 51.53125 54.46875 C 53.63256 57.38051 57.48014 56.16144 57.0625 52.71875 C 56.72368 49.92575 58.41579 49.2907 59.125 51.9375 C 59.80434 54.47284 61.85958 53.82993 62.78125 50.8125 C 63.30168 49.10868 63.90394 48.6449 64.84375 49.1875 C 65.78356 49.73009 65.90986 50.48191 65.3125 51.78125 C 64.79476 52.90739 64.8648 53.4827 65.5 53.3125 C 66.06495 53.16112 66.68902 52.52549 66.875 51.90625 C 67.29376 50.51201 69.90454 49.73359 70.21875 50.90625 C 70.34526 51.37838 69.01594 52.46545 67.25 53.3125 C 64.09396 54.82633 63.13157 57.04147 65.96875 56.28125 C 66.76564 56.06773 67.61499 56.61501 67.84375 57.46875 C 68.14049 58.57621 67.71806 58.93832 66.375 58.75 C 64.2252 58.44857 63.49315 58.59758 56.40625 60.75 L 51.25 62.3125 L 53.21875 67.4375 C 55.72182 73.99494 56.81924 75.071 57.9375 72 C 58.4139 70.69174 59.33007 69.49594 59.96875 69.34375 C 61.78886 68.91 66.40507 71.36283 66.84375 73 C 67.59122 75.7896 69.3954 75.11506 70.125 71.78125 C 70.52645 69.94685 71.26363 68.3262 71.78125 68.1875 C 73.24659 67.79487 73.57304 70.42621 72.28125 72.25 C 70.32263 75.01526 72.38564 77.58727 77.34375 78.5625 C 82.17871 79.5135 83.49243 80.57767 80.75 81.3125 C 79.84936 81.55383 77.58434 80.91663 75.6875 79.875 C 70.88601 77.2383 69.22936 79.20685 70.28125 86.3125 C 71.22854 92.7115 72.38743 93.56928 81.75 94.71875 C 86.78369 95.33675 89.64636 94.98836 98 92.75 C 107.07004 90.31969 108.62512 89.60962 112.75 86 C 118.10186 81.31668 121.79713 75.68867 124.46875 68.15625 C 127.43052 59.80574 127.39818 54.49034 124.34375 44.96875 C 121.34098 35.60816 116.81517 29.23562 109.8125 24.5625 C 107.05833 22.724555 106.22075 21.74814 106.84375 21.65625 z M 66.75 83.46875 C 66.681359 83.478171 66.623789 83.497422 66.5625 83.5625 C 65.54014 84.64808 66.51667 88.27607 68.25 89.84375 C 69.21847 90.71967 69.27336 89.92116 68.46875 86.875 C 67.882701 84.657409 67.230484 83.402801 66.75 83.46875 z "
       transform="translate(132.92102,182.75832)"
       id="rect3866" />
    <path
       style="fill:#000000;fill-opacity:1"
       d="M 86.28125 15.0625 C 84.075315 15.043577 81.894675 15.104815 80.65625 15.28125 C 72.598729 16.429147 65.408989 19.433613 59.375 24 C 61.473849 23.767068 63.187552 23.682399 63.78125 23.9375 C 66.935723 25.292913 66.000304 30.003671 62.625 35.1875 C 62.700589 35.243642 62.765748 35.281762 62.84375 35.34375 C 63.83754 36.13352 64.41508 36.2453 65.21875 35.8125 C 66.96923 34.8698 67.191 33.65017 66.1875 30.78125 C 65.36018 28.41606 65.43836 28.23563 67.8125 26.78125 C 68.44244 26.39537 68.67902 25.62915 68.3125 25.1875 C 68.16984 25.01561 67.70146 24.72477 67.25 24.53125 C 66.79855 24.33774 66.40625 24.10669 66.40625 24 C 66.40625 23.64585 70.63612 22.625 72.125 22.625 C 72.69553 22.625 72.77515 22.685 72.65625 22.96875 C 72.57861 23.15403 72.29482 23.95597 72.03125 24.75 C 71.41831 26.59656 71.39518 27.65392 71.90625 28.21875 C 72.57519 28.95806 73.60771 28.67241 76 27.09375 C 78.78574 25.25544 79.46166 24.99371 82.1875 24.65625 C 84.67021 24.34889 86.0087 23.91964 87.28125 23.03125 C 88.38073 22.2637 90.80647 19.73124 90.96875 19.1875 C 91.08934 18.78337 91.15128 18.76052 91.875 18.875 C 95.49791 19.44803 99.56135 20.61211 102.375 21.875 C 103.64862 22.44665 103.748 22.53796 103.34375 22.6875 C 103.09625 22.77906 102.44821 23.17564 101.90625 23.59375 C 101.36431 24.01186 100.45683 24.51857 99.875 24.71875 C 96.87613 25.75048 96.06498 26.99663 96.9375 29.28125 L 97.25 30.09375 L 96.4375 30.84375 C 95.31463 31.87086 94.82743 32.0477 93.0625 32.0625 C 91.30077 32.07727 90.1961 32.47382 89.15625 33.46875 C 88.11915 34.46103 87.7145 35.41824 87.625 37.15625 C 87.55582 38.50001 87.60121 38.81965 88 39.5625 C 88.28958 40.10193 88.7344 40.54611 89.1875 40.78125 L 89.90625 41.15625 L 89.375 41.84375 C 89.07826 42.23014 88.66218 42.80738 88.46875 43.125 C 88.27533 43.44261 87.298 44.48466 86.3125 45.4375 C 83.8092 47.85787 83.30054 49.00126 82.875 52.84375 C 82.47341 56.46995 82.51859 57.40385 83.34375 59.09375 C 84.2151 60.87828 86.94029 63.62864 88.71875 64.53125 C 90.63128 65.50189 91.66553 65.43499 95.4375 64.03125 C 97.65276 63.20684 97.81658 63.21994 98.5625 64.4375 C 98.90301 64.99332 99.42942 65.75445 99.71875 66.125 C 100.06501 66.56845 100.32822 67.22315 100.46875 68.03125 C 100.58784 68.71606 101.0808 70.13195 101.59375 71.21875 C 102.71983 73.60457 102.79042 74.54631 101.96875 76.59375 C 101.13625 78.66816 101.16469 78.92165 103.21875 85.15625 C 104.38619 88.69966 104.78961 89.28125 106.09375 89.28125 C 106.67552 89.28125 107.29099 89.13004 108 88.75 C 109.26583 88.07153 111.97361 85.44628 113.4375 83.46875 C 114.92645 81.45736 118.51246 75.02874 118.75 73.96875 C 118.85809 73.48644 118.93165 72.23079 118.90625 71.1875 C 118.86222 69.38081 118.89861 69.24662 119.5 68.0625 C 119.84727 67.37873 120.73152 65.97453 121.46875 64.96875 C 122.20597 63.96297 122.97508 62.83029 123.1875 62.4375 C 123.7136 61.46469 123.68211 60.21038 123.09375 58.8125 C 122.4336 57.2441 122.44961 56.7558 123.1875 56.59375 C 124.05999 56.40211 125.00218 55.41145 125.46875 54.15625 C 125.69653 53.54352 125.90625 52.86402 125.90625 52.65625 C 125.90625 52.44849 125.9697 52.28125 126.0625 52.28125 C 126.14171 52.28125 126.23612 52.502114 126.3125 52.90625 C 125.95108 50.506133 125.31076 47.920727 124.34375 44.90625 C 121.34098 35.54566 116.78392 29.17312 109.78125 24.5 C 104.27291 20.82411 106.40684 20.49591 112.65625 24.0625 C 112.91448 24.209874 113.15235 24.376997 113.40625 24.53125 C 107.35503 19.771386 100.06249 16.53712 92.09375 15.375 C 90.730905 15.176255 88.487185 15.081423 86.28125 15.0625 z M 126.3125 52.90625 C 126.45901 53.681461 126.58292 55.085793 126.65625 56.65625 C 126.63658 55.440143 126.50697 54.197706 126.3125 52.90625 z M 98.28125 37.25 C 98.722463 37.207516 99.19027 37.40688 99.78125 37.8125 C 100.22382 38.11625 101.28281 38.71773 102.15625 39.15625 C 103.61329 39.88779 103.75 40.00339 103.75 40.53125 C 103.75 41.21609 103.72368 41.21125 103.25 40.6875 C 102.47305 39.82839 101.58523 39.5625 99.5625 39.5625 C 98.42932 39.5625 97.28172 39.67296 96.71875 39.84375 C 96.19903 40.0014 95.6708 40.15425 95.53125 40.15625 C 95.21611 40.15883 95.82488 39.25495 96.9375 38.09375 C 97.42572 37.584215 97.840037 37.292484 98.28125 37.25 z M 61.0625 37.40625 C 60.90842 37.607225 60.722962 37.798886 60.5625 38 C 60.792463 37.871027 60.931206 37.714803 61.0625 37.40625 z M 106.9375 40.84375 C 107.01083 40.82481 107.0484 40.881745 107.09375 41 C 107.3448 41.65422 108.13389 41.91415 110.5 42.09375 C 113.95224 42.3558 115.10735 43.01547 114.53125 44.40625 C 114.36656 44.80387 114.09025 45.01835 113.59375 45.15625 C 112.75879 45.38818 112.806 45.36498 111.46875 45.03125 C 110.88645 44.88593 109.4967 44.78625 108.40625 44.78125 C 106.01593 44.77142 105.55456 44.55601 104.84375 43.25 C 104.25251 42.1637 104.18834 41.76993 104.625 41.9375 C 105.01762 42.08817 106.10394 41.65074 106.59375 41.125 C 106.75322 40.953825 106.86417 40.86269 106.9375 40.84375 z M 51.96875 46.1875 C 51.441607 46.56976 50.920182 46.955339 50.375 47.3125 C 50.122402 47.477983 49.911917 47.681892 49.75 47.90625 C 50.719285 47.213 51.632309 46.541504 51.875 46.3125 C 51.899649 46.289241 51.938796 46.222821 51.96875 46.1875 z M 56.9375 60.5 C 56.717571 60.566605 56.608456 60.585345 56.375 60.65625 L 51.21875 62.25 L 53.1875 67.375 C 55.69057 73.93244 56.78799 74.97725 57.90625 71.90625 C 58.38265 70.59799 59.29882 69.40219 59.9375 69.25 C 61.75761 68.81625 66.37382 71.26908 66.8125 72.90625 C 67.55997 75.69585 69.36415 75.05256 70.09375 71.71875 C 70.236087 71.068349 70.420605 70.476609 70.625 69.9375 C 70.085381 69.591024 69.406317 69.2722 68.5625 68.9375 C 63.76227 67.0335 62.87071 66.50764 62.65625 65.53125 C 62.45637 64.6212 61.17529 63.36228 59.21875 62.15625 C 58.525192 61.728742 57.666999 61.094193 56.9375 60.5 z M 72.1875 72.28125 C 71.650761 73.076528 71.46152 73.83656 71.5625 74.5625 C 71.965962 73.682927 72.196559 72.917923 72.1875 72.28125 z M 70.5625 79.6875 C 70.234738 80.240988 70.025291 81.008257 69.96875 82.03125 C 70.451354 81.539831 70.581103 80.850312 70.5625 79.6875 z M 66.71875 83.375 C 66.650109 83.384421 66.592539 83.434922 66.53125 83.5 C 66.072529 83.987087 66.048479 84.999352 66.28125 86.09375 C 66.39619 84.99291 66.629617 84.377613 67.28125 83.8125 C 67.082669 83.525639 66.886718 83.351945 66.71875 83.375 z "
       transform="translate(132.92102,182.75832)"
       id="path3049" />
  </g>
</svg>
