<?xml version="1.0" encoding="UTF-8" standalone="no"?>
<!-- Created with Inkscape (http://www.inkscape.org/) -->

<svg
   xmlns:dc="http://purl.org/dc/elements/1.1/"
   xmlns:cc="http://creativecommons.org/ns#"
   xmlns:rdf="http://www.w3.org/1999/02/22-rdf-syntax-ns#"
   xmlns:svg="http://www.w3.org/2000/svg"
   xmlns="http://www.w3.org/2000/svg"
   xmlns:sodipodi="http://sodipodi.sourceforge.net/DTD/sodipodi-0.dtd"
   xmlns:inkscape="http://www.inkscape.org/namespaces/inkscape"
   width="210mm"
   height="297mm"
   viewBox="0 0 744.09448819 1052.3622047"
   id="svg2"
   version="1.1"
   inkscape:version="0.91 r13725"
   sodipodi:docname="drawing.svg"
   inkscape:export-filename="C:\Users\pfernandez\Desktop\logoIguana.png"
   inkscape:export-xdpi="90"
   inkscape:export-ydpi="90">
  <defs
     id="defs4" />
  <sodipodi:namedview
     id="base"
     pagecolor="#ffffff"
     bordercolor="#666666"
     borderopacity="1.0"
     inkscape:pageopacity="0.0"
     inkscape:pageshadow="2"
     inkscape:zoom="0.49497475"
     inkscape:cx="84.778059"
     inkscape:cy="354.49259"
     inkscape:document-units="px"
     inkscape:current-layer="layer1-2"
     showgrid="false"
     inkscape:window-width="1455"
     inkscape:window-height="684"
     inkscape:window-x="432"
     inkscape:window-y="157"
     inkscape:window-maximized="0" />
  <metadata
     id="metadata7">
    <rdf:RDF>
      <cc:Work
         rdf:about="">
        <dc:format>image/svg+xml</dc:format>
        <dc:type
           rdf:resource="http://purl.org/dc/dcmitype/StillImage" />
      </cc:Work>
    </rdf:RDF>
  </metadata>
  <g
     inkscape:label="Capa 1"
     inkscape:groupmode="layer"
     id="layer1">
    <g
       transform="matrix(5.2631579,0,0,5.2631579,-681.97173,-796.87206)"
       id="layer1-2"
       inkscape:label="Layer 1"
       inkscape:export-xdpi="90"
       inkscape:export-ydpi="90">
      <path
         id="rect3866"
         d="m 152.92102,182.75832 c -11.08,0 -20,8.92 -20,20 l 0,93 c 0,11.08 8.92,20 20,20 l 93,0 c 11.08,0 20,-8.92 20,-20 l 0,-93 c 0,-11.08 -8.92,-20 -20,-20 z m 86.84375,21.65625 c 0.623,-0.0919 2.6878,0.71671 5.8125,2.5 15.07315,8.60235 22.81778,29.05308 17.96875,47.4375 -1.79691,6.81274 -9.2187,19.46252 -13.90625,23.6875 -23.4596,21.63848 -59.54978,15.54941 -77,-4 -16.04825,-25.9611 1.34615,-41.5577 0.15625,-56.9375 2.12024,-3.3209 5.01318,-6.60826 6.4375,-7.3125 3.4411,-1.70144 15.65335,-3.79347 17.5,-3 5.72538,2.46008 -1.97035,15.85182 -13.40625,23.34375 -1.7321,1.13474 -1.32637,3.69693 1.125,7.09375 2.10131,2.91176 5.94889,1.69269 5.53125,-1.75 -0.33882,-2.793 1.35329,-3.42805 2.0625,-0.78125 0.67934,2.53534 2.73458,1.89243 3.65625,-1.125 0.52043,-1.70382 1.12269,-2.1676 2.0625,-1.625 0.93981,0.54259 1.06611,1.29441 0.46875,2.59375 -0.51774,1.12614 -0.4477,1.70145 0.1875,1.53125 0.56495,-0.15138 1.18902,-0.78701 1.375,-1.40625 0.41876,-1.39424 3.02954,-2.17266 3.34375,-1 0.12651,0.47213 -1.20281,1.5592 -2.96875,2.40625 -3.15604,1.51383 -4.11843,3.72897 -1.28125,2.96875 0.79689,-0.21352 1.64624,0.33376 1.875,1.1875 0.29674,1.10746 -0.12569,1.46957 -1.46875,1.28125 -2.1498,-0.30143 -2.88185,-0.15242 -9.96875,2 l -5.15625,1.5625 1.96875,5.125 c 2.50307,6.55744 3.60049,7.6335 4.71875,4.5625 0.4764,-1.30826 1.39257,-2.50406 2.03125,-2.65625 1.82011,-0.43375 6.43632,2.01908 6.875,3.65625 0.74747,2.7896 2.55165,2.11506 3.28125,-1.21875 0.40145,-1.8344 1.13863,-3.45505 1.65625,-3.59375 1.46534,-0.39263 1.79179,2.23871 0.5,4.0625 -1.95862,2.76526 0.10439,5.33727 5.0625,6.3125 4.83496,0.951 6.14868,2.01517 3.40625,2.75 -0.90064,0.24133 -3.16566,-0.39586 -5.0625,-1.4375 -2.09159,-1.14858 -4.633,-2.0494 -6.44614,-1.6091 -2.34912,0.57048 -3.65753,3.08925 -3.06386,7.09959 0.94729,6.399 6.20993,8.20379 15.5725,9.35326 5.03369,0.618 7.89636,0.26961 16.25,-1.96875 9.07004,-2.43031 10.62512,-3.14038 14.75,-6.75 5.35186,-4.68332 9.04713,-10.31133 11.71875,-17.84375 2.96177,-8.35051 2.92943,-13.66591 -0.125,-23.1875 -3.00277,-9.36059 -7.52858,-15.73313 -14.53125,-20.40625 -2.75417,-1.83794 -3.59175,-2.81436 -2.96875,-2.90625 z m -40.09375,61.8125 c -0.0686,0.009 -0.12621,0.0287 -0.1875,0.0937 -1.02236,1.08558 -0.0458,4.71357 1.6875,6.28125 0.96847,0.87592 1.02336,0.0774 0.21875,-2.96875 -0.58605,-2.21759 -1.23827,-3.47219 -1.71875,-3.40625 z"
         style="fill:#00a2cc;fill-opacity:1;stroke:none"
         inkscape:connector-curvature="0"
         sodipodi:nodetypes="sssssssssssscccsssssssssscssssscccccsscssssssssssssscsscc" />
      <path
         id="path3049"
         d="m 86.28125,15.0625 c -2.205935,-0.01892 -4.386575,0.04232 -5.625,0.21875 C 72.598729,16.429147 65.408989,19.433613 59.375,24 c 2.098849,-0.232932 3.812552,-0.317601 4.40625,-0.0625 3.154473,1.355413 2.219054,6.066171 -1.15625,11.25 0.07559,0.05614 0.140748,0.09426 0.21875,0.15625 0.99379,0.78977 1.57133,0.90155 2.375,0.46875 1.75048,-0.9427 1.97225,-2.16233 0.96875,-5.03125 -0.82732,-2.36519 -0.74914,-2.54562 1.625,-4 0.62994,-0.38588 0.86652,-1.1521 0.5,-1.59375 C 68.16984,25.01561 67.70146,24.72477 67.25,24.53125 66.79855,24.33774 66.40625,24.10669 66.40625,24 c 0,-0.35415 4.22987,-1.375 5.71875,-1.375 0.57053,0 0.65015,0.06 0.53125,0.34375 -0.07764,0.18528 -0.36143,0.98722 -0.625,1.78125 -0.61294,1.84656 -0.63607,2.90392 -0.125,3.46875 0.66894,0.73931 1.70146,0.45366 4.09375,-1.125 2.78574,-1.83831 3.46166,-2.10004 6.1875,-2.4375 2.48271,-0.30736 3.8212,-0.73661 5.09375,-1.625 1.09948,-0.76755 3.52522,-3.30001 3.6875,-3.84375 0.12059,-0.40413 0.18253,-0.42698 0.90625,-0.3125 3.62291,0.57303 7.68635,1.73711 10.5,3 1.27362,0.57165 1.373,0.66296 0.96875,0.8125 -0.2475,0.09156 -0.89554,0.48814 -1.4375,0.90625 -0.54194,0.41811 -1.44942,0.92482 -2.03125,1.125 -2.99887,1.03173 -3.81002,2.27788 -2.9375,4.5625 l 0.3125,0.8125 -0.8125,0.75 c -1.12287,1.02711 -1.61007,1.20395 -3.375,1.21875 -1.76173,0.01477 -2.8664,0.41132 -3.90625,1.40625 -1.0371,0.99228 -1.44175,1.94949 -1.53125,3.6875 -0.06918,1.34376 -0.02379,1.6634 0.375,2.40625 0.28958,0.53943 0.7344,0.98361 1.1875,1.21875 l 0.71875,0.375 -0.53125,0.6875 c -0.29674,0.38639 -0.71282,0.96363 -0.90625,1.28125 -0.19342,0.31761 -1.17075,1.35966 -2.15625,2.3125 -2.5033,2.42037 -3.01196,3.56376 -3.4375,7.40625 -0.40159,3.6262 -0.35641,4.5601 0.46875,6.25 0.87135,1.78453 3.59654,4.53489 5.375,5.4375 1.91253,0.97064 2.94678,0.90374 6.71875,-0.5 2.21526,-0.82441 2.37908,-0.81131 3.125,0.40625 0.34051,0.55582 0.86692,1.31695 1.15625,1.6875 0.34626,0.44345 0.60947,1.09815 0.75,1.90625 0.11909,0.68481 0.61205,2.1007 1.125,3.1875 1.12608,2.38582 1.19667,3.32756 0.375,5.375 -0.8325,2.07441 -0.80406,2.3279 1.25,8.5625 1.16744,3.54341 1.57086,4.125 2.875,4.125 0.58177,0 1.19724,-0.15121 1.90625,-0.53125 1.26583,-0.67847 3.97361,-3.30372 5.4375,-5.28125 1.48895,-2.01139 5.07496,-8.44001 5.3125,-9.5 0.10809,-0.48231 0.18165,-1.73796 0.15625,-2.78125 -0.044,-1.80669 -0.008,-1.94088 0.59375,-3.125 0.34727,-0.68377 1.23152,-2.08797 1.96875,-3.09375 0.73722,-1.00578 1.50633,-2.13846 1.71875,-2.53125 0.5261,-0.97281 0.49461,-2.22712 -0.0937,-3.625 -0.66015,-1.5684 -0.64414,-2.0567 0.0937,-2.21875 0.87249,-0.19164 1.81468,-1.1823 2.28125,-2.4375 0.22778,-0.61273 0.4375,-1.29223 0.4375,-1.5 0,-0.20776 0.0635,-0.375 0.15625,-0.375 0.0792,0 0.17362,0.220864 0.25,0.625 -0.36142,-2.400117 -1.00174,-4.985523 -1.96875,-8 -3.00277,-9.36059 -7.55983,-15.73313 -14.5625,-20.40625 -5.50834,-3.67589 -3.37441,-4.00409 2.875,-0.4375 0.25823,0.147374 0.4961,0.314497 0.75,0.46875 -6.05122,-4.759864 -13.34376,-7.99413 -21.3125,-9.15625 -1.362845,-0.198745 -3.606565,-0.293577 -5.8125,-0.3125 z m 40.03125,37.84375 c 0.14651,0.775211 0.27042,2.179543 0.34375,3.75 -0.0197,-1.216107 -0.14928,-2.458544 -0.34375,-3.75 z M 98.28125,37.25 c 0.441213,-0.04248 0.90902,0.15688 1.5,0.5625 0.44257,0.30375 1.50156,0.90523 2.375,1.34375 1.45704,0.73154 1.59375,0.84714 1.59375,1.375 0,0.68484 -0.0263,0.68 -0.5,0.15625 -0.77695,-0.85911 -1.66477,-1.125 -3.6875,-1.125 -1.13318,0 -2.28078,0.11046 -2.84375,0.28125 -0.51972,0.15765 -1.04795,0.3105 -1.1875,0.3125 -0.31514,0.0026 0.29363,-0.9013 1.40625,-2.0625 0.48822,-0.509535 0.902537,-0.801266 1.34375,-0.84375 z M 61.0625,37.40625 c -0.15408,0.200975 -0.339538,0.392636 -0.5,0.59375 0.229963,-0.128973 0.368706,-0.285197 0.5,-0.59375 z m 45.875,3.4375 c 0.0733,-0.01894 0.1109,0.038 0.15625,0.15625 0.25105,0.65422 1.04014,0.91415 3.40625,1.09375 3.45224,0.26205 4.60735,0.92172 4.03125,2.3125 -0.16469,0.39762 -0.441,0.6121 -0.9375,0.75 -0.83496,0.23193 -0.78775,0.20873 -2.125,-0.125 -0.5823,-0.14532 -1.97205,-0.245 -3.0625,-0.25 -2.39032,-0.0098 -2.85169,-0.22524 -3.5625,-1.53125 -0.59124,-1.0863 -0.65541,-1.48007 -0.21875,-1.3125 0.39262,0.15067 1.47894,-0.28676 1.96875,-0.8125 0.15947,-0.171175 0.27042,-0.26231 0.34375,-0.28125 z M 51.96875,46.1875 c -0.527143,0.38226 -1.048568,0.767839 -1.59375,1.125 -0.252598,0.165483 -0.463083,0.369392 -0.625,0.59375 0.969285,-0.69325 1.882309,-1.364746 2.125,-1.59375 0.02465,-0.02326 0.0638,-0.08968 0.09375,-0.125 z M 56.9375,60.5 c -0.219929,0.06661 -0.329044,0.08534 -0.5625,0.15625 L 51.21875,62.25 53.1875,67.375 c 2.50307,6.55744 3.60049,7.60225 4.71875,4.53125 0.4764,-1.30826 1.39257,-2.50406 2.03125,-2.65625 1.82011,-0.43375 6.43632,2.01908 6.875,3.65625 0.74747,2.7896 2.55165,2.14631 3.28125,-1.1875 0.142337,-0.650401 0.326855,-1.242141 0.53125,-1.78125 -0.539619,-0.346476 -1.218683,-0.6653 -2.0625,-1 -4.80023,-1.904 -5.69179,-2.42986 -5.90625,-3.40625 -0.19988,-0.91005 -1.48096,-2.16897 -3.4375,-3.375 C 58.525192,61.728742 57.666999,61.094193 56.9375,60.5 Z m 15.25,11.78125 c -0.536739,0.795278 -0.72598,1.55531 -0.625,2.28125 0.403462,-0.879573 0.634059,-1.644577 0.625,-2.28125 z m -1.625,7.40625 c -0.327762,0.553488 -0.537209,1.320757 -0.59375,2.34375 0.482604,-0.491419 0.612353,-1.180938 0.59375,-2.34375 z m -3.84375,3.6875 c -0.06864,0.0094 -0.126211,0.05992 -0.1875,0.125 -0.458721,0.487087 -0.482771,1.499352 -0.25,2.59375 0.11494,-1.10084 0.348367,-1.716137 1,-2.28125 -0.198581,-0.286861 -0.394532,-0.460555 -0.5625,-0.4375 z"
         style="fill:#000000;fill-opacity:0.4526749;stroke:#73aea5;stroke-opacity:0"
         inkscape:connector-curvature="0"
         transform="translate(132.92102,182.75832)" />
    </g>
  </g>
</svg>
